<svg width="32" height="32" viewBox="0 0 32 32" fill="none" xmlns="http://www.w3.org/2000/svg">
<path fill-rule="evenodd" clip-rule="evenodd" d="M12.4781 9.82497C13.0125 8.68609 14.2594 7.72605 15.5906 7.41544C17.2406 7.03895 19.2938 7.69781 20.2969 8.93081C21.8906 10.8791 21.2156 13.7311 18.9094 14.8511C16.5 16.0276 13.5375 15.1052 12.4875 12.8651C12.2625 12.3757 12.2344 12.2063 12.2344 11.3309C12.2344 10.465 12.2625 10.2768 12.4781 9.82497ZM20.2875 10.2673C20.4281 9.65555 19.9313 8.78022 19.2281 8.41314C17.7094 7.64134 15.8625 8.86493 16.2281 10.4085C16.4531 11.3968 17.5688 12.0463 18.6469 11.8204C19.5 11.6415 20.1 11.0768 20.2875 10.2673ZM15.4688 13.8252C16.0406 13.5334 16.125 12.7428 15.6188 12.4133C14.9438 11.9616 14.0719 12.3475 14.0625 13.1004C14.0625 13.7311 14.8594 14.1452 15.4688 13.8252Z" fill="#757F99"/>
<path fill-rule="evenodd" clip-rule="evenodd" d="M10.9875 6.00361C12.0188 5.10945 13.7156 4.32823 15.1125 4.09292C16.0031 3.94233 17.6063 3.97998 18.5156 4.16822C22.0219 4.89296 24.6656 7.6131 24.9094 10.738L24.9656 11.4251H25.35C26.175 11.4251 27 12.1216 27 12.8181C27 13.6087 25.9594 16.6865 25.05 18.5784C23.3438 22.1456 20.5969 25.3458 17.3906 27.52L16.6781 28L16.0031 27.5482C14.2969 26.4093 12.1594 24.4045 10.8563 22.7197C9.60938 21.1008 8.55 19.256 7.73438 17.3077C7.5 16.743 7.28438 16.2629 7.26563 16.2441C7.24688 16.2253 7.13438 16.2724 7.0125 16.3571C6.9 16.4418 6.76875 16.5077 6.73125 16.5077C6.69375 16.5077 6.53438 16.2818 6.375 16.0088C6.02813 15.397 5.99062 14.6629 6.28125 14.1734C6.42188 13.9475 6.44063 13.8534 6.35625 13.8346C4.66875 13.3828 3 12.7334 3 12.5169C3 12.4604 3.23438 12.1592 3.51563 11.8392C4.13437 11.1333 4.725 10.8509 5.67188 10.785C6.40313 10.7474 7.36875 10.9262 7.95938 11.2274C8.15625 11.3309 8.34375 11.3874 8.38125 11.3592C8.40938 11.3215 8.4375 11.105 8.4375 10.8603C8.4375 9.29789 9.4875 7.29308 10.9875 6.00361ZM21.7594 7.36838C20.8688 6.47422 20.1563 6.03184 18.9844 5.62712C18.3281 5.40122 18.0563 5.36358 16.875 5.33534C15.7313 5.3071 15.4031 5.33534 14.8125 5.49535C12.3094 6.17303 10.4531 7.999 9.98438 10.2485C9.73125 11.4533 9.88125 12.5451 10.4438 13.7499L10.7625 14.4276L11.55 14.7946C13.2 15.5853 14.8031 15.9429 16.6969 15.9429C18.5437 15.9429 20.2594 15.5476 21.8813 14.757C22.5188 14.4464 22.6031 14.3711 22.8563 13.8816C23.6719 12.338 23.7 10.5403 22.9125 8.91199C22.6406 8.33784 22.3969 8.00841 21.7594 7.36838ZM8.05313 12.451C7.93125 12.3757 7.59375 12.2063 7.3125 12.0839C6.6375 11.8015 5.54063 11.7357 5.04375 11.9521C4.84687 12.0369 4.6875 12.1404 4.6875 12.1874C4.6875 12.2251 5.03438 12.3757 5.46563 12.5169C6.40313 12.8181 7.5 12.9122 7.95938 12.7239L8.27813 12.5922L8.05313 12.451ZM8.2875 14.2205C8.42813 13.9946 8.53125 13.7781 8.53125 13.7499C8.53125 13.6746 8.52188 13.6746 7.95938 13.8158C7.4625 13.9381 7.26563 14.0793 7.06875 14.4464C6.91875 14.7382 6.89063 15.3782 7.02188 15.3782C7.21875 15.3782 8.07188 14.597 8.2875 14.2205ZM23.9531 17.0818C24.4219 16.7241 24.4406 16.6959 24.8719 15.4158C25.1156 14.7099 25.2938 14.1075 25.275 14.0887C25.2563 14.0699 25.1906 14.1264 25.125 14.2017C24.9 14.4746 23.2219 15.5382 22.4062 15.9429C21.4781 16.3853 20.1844 16.8089 18.9844 17.0442C17.8406 17.2606 15.5625 17.2606 14.3438 17.0347C12.7125 16.7336 10.8563 16.0088 9.47813 15.1241L8.97188 14.7946L8.4375 15.3311L8.69063 15.99C9.01875 16.8653 9.375 17.3736 10.0125 17.8818C11.1844 18.8042 13.0031 19.529 15.0563 19.8961C15.675 20.009 16.3031 20.1314 16.4531 20.169L16.7344 20.2443L16.4531 20.3573C16.3031 20.4232 15.8531 20.5643 15.4688 20.6679C14.6531 20.8938 12.8813 20.9408 12.4313 20.762C11.9344 20.5455 12.0563 20.7338 12.5719 20.9691C13.0031 21.1667 13.4438 21.2797 14.8875 21.5526C15.6375 21.7032 13.9688 22.0985 12.8438 22.0421L12.0188 22.0044L12.4406 22.5409C13.3406 23.6986 16.3125 26.3905 16.6875 26.3905C16.8938 26.3905 18.3469 25.2046 19.3969 24.1786C20.9156 22.6915 22.1625 21.082 23.1469 19.3125L23.4469 18.7666L23.0438 18.9172C22.1438 19.2372 20.7 19.1525 19.875 18.7195C19.4438 18.4936 19.5375 18.3901 20.1656 18.3901C21.3563 18.3901 22.9594 17.8348 23.9531 17.0818Z" fill="#757F99"/>
</svg>
